HIERARCHY
ROOT Hips
{
 OFFSET 0.000000 0.000000 0.000000
 CHANNELS 6 Xposition Yposition Zposition Yrotation Xrotation Zrotation
 JOINT Chest
 {
  OFFSET 0.000000 9.588913 -0.003946
  CHANNELS 3 Yrotation Xrotation Zrotation
  JOINT Chest2
  {
   OFFSET 0.000000 9.541882 0.008053
   CHANNELS 3 Yrotation Xrotation Zrotation
   JOINT Chest3
   {
    OFFSET 0.000000 9.501360 0.000000
    CHANNELS 3 Yrotation Xrotation Zrotation
    JOINT Chest4
    {
     OFFSET 0.000000 9.491660 0.000000
     CHANNELS 3 Yrotation Xrotation Zrotation
     JOINT Neck
     {
      OFFSET 0.000000 14.331917 0.000000
      CHANNELS 3 Yrotation Xrotation Zrotation
      JOINT Head
      {
       OFFSET 0.000000 8.884799 0.017034
       CHANNELS 3 Yrotation Xrotation Zrotation
       End Site
       {
        OFFSET 0.000000 16.896195 0.008993
       }
      }
     }
     JOINT RightCollar
     {
      OFFSET -2.923010 9.499495 0.000000
      CHANNELS 3 Yrotation Xrotation Zrotation
      JOINT RightShoulder
      {
       OFFSET -13.795216 0.000000 0.000000
       CHANNELS 3 Yrotation Xrotation Zrotation
       JOINT RightElbow
       {
        OFFSET -30.272209 0.000000 0.000000
        CHANNELS 3 Yrotation Xrotation Zrotation
        JOINT RightWrist
        {
         OFFSET -24.478199 0.000000 0.000000
         CHANNELS 3 Yrotation Xrotation Zrotation
         End Site
         {
          OFFSET -18.090752 0.000000 0.000000
         }
        }
       }
      }
     }
     JOINT LeftCollar
     {
      OFFSET 2.923010 9.499495 0.000000
      CHANNELS 3 Yrotation Xrotation Zrotation
      JOINT LeftShoulder
      {
       OFFSET 13.795216 0.000000 0.000000
       CHANNELS 3 Yrotation Xrotation Zrotation
       JOINT LeftElbow
       {
        OFFSET 30.272209 0.000000 0.000000
        CHANNELS 3 Yrotation Xrotation Zrotation
        JOINT LeftWrist
        {
         OFFSET 24.478199 0.000000 0.000000
         CHANNELS 3 Yrotation Xrotation Zrotation
         End Site
         {
          OFFSET 18.090752 0.000000 0.000000
         }
        }
       }
      }
     }
    }
   }
  }
 }
 JOINT RightHip
 {
  OFFSET -7.826875 0.019532 0.001973
  CHANNELS 3 Yrotation Xrotation Zrotation
  JOINT RightKnee
  {
   OFFSET 0.000000 -40.546152 -0.001885
   CHANNELS 3 Yrotation Xrotation Zrotation
   JOINT RightAnkle
   {
    OFFSET 0.000000 -39.417092 -0.003189
    CHANNELS 3 Yrotation Xrotation Zrotation
    JOINT RightToe
    {
     OFFSET 0.000000 -7.579396 17.243563
     CHANNELS 3 Yrotation Xrotation Zrotation
     End Site
     {
      OFFSET 0.000000 -1.500329 6.694466
     }
    }
   }
  }
 }
 JOINT LeftHip
 {
  OFFSET 7.826875 0.019532 0.001973
  CHANNELS 3 Yrotation Xrotation Zrotation
  JOINT LeftKnee
  {
   OFFSET 0.000000 -40.546152 -0.001885
   CHANNELS 3 Yrotation Xrotation Zrotation
   JOINT LeftAnkle
   {
    OFFSET 0.000000 -39.417092 -0.003189
    CHANNELS 3 Yrotation Xrotation Zrotation
    JOINT LeftToe
    {
     OFFSET 0.000000 -7.579396 17.243563
     CHANNELS 3 Yrotation Xrotation Zrotation
     End Site
     {
      OFFSET 0.000000 -1.500329 6.694466
     }
    }
   }
  }
 }
}
MOTION
Frames: 8
Frame Time: 0.008333
0.000000 87.345680 0.000000 0.000000 -5.767889 0.000000 0.000000 11.653876 0.000000 0.000000 -5.885988 0.000000 0.000000 -0.000000 0.000000 0.000000 -0.000000 0.000000 0.000000 12.528808 0.000000 0.000000 0.711711 0.000000 0.000000 -0.000000 0.000000 0.000000 -0.000000 0.000000 2.309063 -0.000000 0.000000 -2.309063 -0.000000 -0.000000 0.000000 -0.000000 0.000000 0.000000 0.000000 0.000000 -2.309063 0.000000 0.000000 2.309063 -0.000000 0.000000 0.000000 8.520374 0.000000 0.000000 1.905768 0.000000 -0.000000 -4.658254 0.000000 0.000000 -0.000000 0.000000 0.000000 8.520374 0.000000 0.000000 1.905768 0.000000 -0.000000 -4.658254 0.000000 0.000000 -0.000000 0.000000
-7.094012 89.192444 11.961472 -59.323639 -8.802323 -0.030965 -4.039890 4.145862 -0.442001 -2.284166 2.382742 -0.200001 -2.857125 2.977032 -0.264904 -2.284165 2.382742 -0.200001 4.528068 20.906299 -3.377988 9.180442 3.434191 -7.419865 13.575822 1.930123 -3.386854 1.620200 -5.546504 90.426989 3.513994 1.949260 0.987197 -1.442131 -5.663029 -0.892902 11.299591 -0.197175 -0.145315 6.987071 -1.727129 -88.668421 -6.332560 8.195936 -3.035732 0.805068 -4.458050 -1.508726 -9.364815 12.118099 -0.588474 -1.000780 1.234129 -0.603013 -30.074387 -3.867719 1.626061 -0.032115 -0.070254 0.013425 -7.209580 12.753340 -2.043429 -8.341496 -0.695634 1.426242 -30.114781 -2.325596 0.694167 0.056177 0.040677 0.075593
-7.091222 89.195471 11.985874 -59.165123 -8.746705 -0.027954 -4.049117 4.123203 -0.448972 -2.288193 2.367671 -0.201448 -2.862153 2.958182 -0.266644 -2.288192 2.367671 -0.201448 4.712735 20.847832 -3.389733 9.522960 3.345927 -7.497882 13.550973 1.940494 -3.384454 1.576463 -5.480610 90.490380 3.538782 1.966444 0.999572 -1.433436 -5.650437 -0.891068 11.244037 -0.207428 -0.150163 6.970581 -1.838078 -88.662862 -6.305157 8.147213 -3.020765 0.796312 -4.475104 -1.476894 -9.463159 12.102005 -0.614834 -1.030609 1.197612 -0.609711 -30.064696 -3.852715 1.650353 -0.039548 -0.073171 0.007960 -7.361860 12.676198 -2.058101 -8.328845 -0.691346 1.389457 -30.111935 -2.301296 0.695668 0.054816 0.033951 0.078648
-7.090471 89.199210 12.015809 -59.020452 -8.705804 -0.027937 -4.046654 4.106711 -0.454804 -2.286087 2.357029 -0.201835 -2.859511 2.944880 -0.267047 -2.286087 2.357029 -0.201835 4.898079 20.788369 -3.400901 9.866780 3.256299 -7.575338 13.516755 1.953665 -3.384557 1.542852 -5.417739 90.551014 3.560926 1.982569 1.015156 -1.425478 -5.643239 -0.891542 11.185648 -0.215608 -0.153455 6.941574 -1.952442 -88.668040 -6.263848 8.090930 -2.997271 0.790547 -4.491832 -1.448992 -9.552244 12.097986 -0.640255 -1.060084 1.168585 -0.617940 -30.056003 -3.837730 1.678751 -0.045019 -0.078380 0.003413 -7.499817 12.602960 -2.072017 -8.311140 -0.657982 1.348595 -30.112255 -2.288458 0.709167 0.053406 0.027775 0.081925
-7.090078 89.203202 12.051696 -58.889936 -8.678828 -0.023739 -4.035486 4.094438 -0.467150 -2.279585 2.351080 -0.201392 -2.851372 2.937451 -0.266414 -2.279585 2.351080 -0.201392 5.085715 20.728541 -3.412756 10.215140 3.166792 -7.654927 13.484959 1.963926 -3.387449 1.519995 -5.351460 90.609653 3.580904 1.999445 1.033887 -1.418153 -5.643839 -0.893246 11.130999 -0.224716 -0.155165 6.898998 -2.066303 -88.680834 -6.212748 8.027302 -2.965901 0.787870 -4.507038 -1.425955 -9.633120 12.099184 -0.673046 -1.074212 1.150028 -0.628182 -30.055707 -3.801741 1.711899 -0.048665 -0.104093 -0.000708 -7.621402 12.538941 -2.096921 -8.282479 -0.604813 1.308922 -30.120335 -2.285385 0.734336 0.053189 0.023021 0.084923
-7.090922 89.207057 12.090928 -58.772137 -8.667588 -0.030752 -4.017408 4.090013 -0.471444 -2.269446 2.349096 -0.200679 -2.838689 2.934983 -0.265445 -2.269446 2.349097 -0.200679 5.276023 20.668781 -3.425320 10.568704 3.078272 -7.736752 13.461486 1.966665 -3.391722 1.507134 -5.276732 90.667839 3.599853 2.017009 1.052928 -1.414791 -5.654346 -0.890131 11.083194 -0.233676 -0.150924 6.844484 -2.178302 -88.700824 -6.155450 7.961037 -2.929059 0.787100 -4.519879 -1.406767 -9.704592 12.116242 -0.697603 -1.070244 1.143560 -0.642302 -30.063910 -3.787386 1.754483 -0.049505 -0.113716 -0.004143 -7.725580 12.489684 -2.115124 -8.242643 -0.541340 1.274494 -30.129904 -2.290458 0.763275 0.051518 0.020535 0.086207
-7.091565 89.210310 12.133692 -58.670259 -8.668362 -0.041139 -3.991900 4.090248 -0.475242 -2.255347 2.349956 -0.199834 -2.821057 2.936072 -0.264304 -2.255347 2.349957 -0.199834 5.467663 20.610523 -3.438074 10.924774 2.993207 -7.819356 13.443518 1.963551 -3.397499 1.505489 -5.196070 90.724992 3.616528 2.029921 1.069861 -1.419025 -5.663367 -0.875728 11.041828 -0.237940 -0.137380 6.781581 -2.289370 -88.728872 -6.096168 7.900939 -2.888937 0.787647 -4.529294 -1.389717 -9.765360 12.141531 -0.720903 -1.070451 1.144351 -0.657494 -30.065073 -3.774396 1.800319 -0.048522 -0.122501 -0.006688 -7.817789 12.455456 -2.136503 -8.207215 -0.476582 1.248534 -30.129069 -2.300449 0.793161 0.049112 0.020420 0.086147
-7.091840 89.212658 12.179408 -58.581981 -8.679311 -0.054496 -3.960054 4.095101 -0.478767 -2.237801 2.353035 -0.198825 -2.799118 2.939940 -0.262949 -2.237801 2.353036 -0.198825 5.659509 20.554912 -3.451517 11.281342 2.913657 -7.903197 13.427622 1.953820 -3.404125 1.517384 -5.113032 90.776467 3.628153 2.037886 1.087102 -1.432400 -5.662477 -0.851236 11.004179 -0.237212 -0.114998 6.715391 -2.398958 -88.762435 -6.038961 7.853416 -2.850574 0.788810 -4.536439 -1.372611 -9.817364 12.174571 -0.742719 -1.079588 1.148308 -0.672220 -30.060545 -3.762607 1.845203 -0.046635 -0.129347 -0.007315 -7.900352 12.436706 -2.159192 -8.179466 -0.417787 1.229777 -30.120838 -2.312092 0.822193 0.045752 0.022979 0.084180
